# xmcd CD database file
#
# Track frame offsets:
#	150
#	29710
#	55660
#	86585
#	107475
#	125072
#	137438
#	156750
#	181800
#	205508
#	237460
#	252900
#	287373
#	301763
#
# Disc length: 4360 seconds
#
# Revision: 8
# Processed by: cddbd v1.5.2PL0 Copyright (c) Steve Scherf et al.
# Submitted via: CDex 1.51
#
DISCID=b411060e
DTITLE=Los Jaivas - Obras Cumbres 1
DYEAR=2001
DGENRE=Folk/Rock
TTITLE0=Foto De Primera Comunión
TTITLE1=Todos Juntos
TTITLE2=Mira Niñita
TTITLE3=La Quebra' Del Ají
TTITLE4=Tema De Los Títulos
TTITLE5=Donde Estabas Tú
TTITLE6=La Centinela
TTITLE7=Ta Bom Ta Que Ta
TTITLE8=Pregón Para Iluminarse
TTITLE9=La Conquistada
TTITLE10=La Vida Mágica ¡Ay Sí!
TTITLE11=La Canción Del Sur
TTITLE12=Frescura Antigua
TTITLE13=Antigua América
EXTD=YEAR: 2001
EXTT0=
EXTT1=
EXTT2=
EXTT3=
EXTT4=
EXTT5=
EXTT6=
EXTT7=
EXTT8=
EXTT9=
EXTT10=
EXTT11=
EXTT12=
EXTT13=
PLAYORDER=
